<svg id="Capa_1" enable-background="new 0 0 512 512" height="512" viewBox="0 0 512 512" width="512" xmlns="http://www.w3.org/2000/svg"><g><path d="m512 30.904h-256l-20.016 225.096 20.016 225.096h256z" fill="#00aa95"/><path d="m0 30.904h256v450.192h-256z" fill="#00dd80"/><path d="m256 90.952-20.016 95.064 215.039-20.016v-75.048z" fill="#007579"/><path d="m256 90.952h-195.023v75.048l195.023 20.016z" fill="#00aa95"/><path d="m256 421.048h195.023v-255.048h-195.023l-20.016 127.524z" fill="#ebebf0"/><path d="m60.977 166h195.023v255.049h-195.023z" fill="#fff5f5"/><path d="m203.5 368.548h-90.012v-90.024h60v-30.024h-60.011v-30h90.011v90.024h-60v30.024h60.012z" fill="#55696e"/><path d="m398.53 248.5v-30h-90.036v150.048h90.023v-90.024h-60.023v-30.024zm-30.013 90.048h-30.023v-30.024h30.023z" fill="#3f4a4a"/></g></svg>